<?xml version="1.0" encoding="utf-8"?>
<!-- Generator: Adobe Illustrator 19.1.0, SVG Export Plug-In . SVG Version: 6.00 Build 0)  -->
<svg version="1.1" id="Layer_1" xmlns="http://www.w3.org/2000/svg" xmlns:xlink="http://www.w3.org/1999/xlink" x="0px" y="0px"
	 viewBox="0 0 32 64" style="enable-background:new 0 0 32 64;" xml:space="preserve">
<style type="text/css">
	.st0{fill:#C9CACC;}
	.st1{fill:#FFFFFF;}
	.st2{fill:#DD4326;}
</style>
<circle class="st0" cx="16" cy="17" r="14"/>
<path class="st1" d="M24.1,19.3H7.9c-0.5,0-1-0.4-1-1v-2.4c0-0.6,0.5-1,1-1h16.1c0.5,0,1,0.4,1,1v2.4C25.1,18.8,24.6,19.3,24.1,19.3
	z"/>
<circle class="st2" cx="16" cy="49" r="14"/>
<path class="st1" d="M24.1,50.8H7.9c-0.5,0-1-0.5-1-1v-2.4c0-0.5,0.5-1,1-1h16.1c0.6,0,1,0.5,1,1v2.4C25.1,50.3,24.6,50.8,24.1,50.8
	z"/>
<path class="st2" d="M21.6,55.4"/>
<path class="st2" d="M12.2,35"/>
<path class="st2" d="M12.2,35"/>
<path class="st2" d="M2.4,55.3"/>
<path class="st2" d="M32.6,33.4"/>
<path class="st2" d="M23.2,14"/>
</svg>
