<?xml version="1.0" encoding="utf-8"?>
<!-- Generator: Adobe Illustrator 19.1.0, SVG Export Plug-In . SVG Version: 6.00 Build 0)  -->
<svg version="1.1" id="Layer_1" xmlns="http://www.w3.org/2000/svg" xmlns:xlink="http://www.w3.org/1999/xlink" x="0px" y="0px"
	 viewBox="0 0 64 256" style="enable-background:new 0 0 64 256;" xml:space="preserve">
<style type="text/css">
	.st0{fill:#C9CACC;}
	.st1{fill:#DD4326;}
	.st2{fill:#FEE43F;}
	.st3{fill:#F68A43;}
</style>
<polygon class="st0" points="50.9,63 31.8,52.3 12.5,62.7 16.4,40.3 1,24.4 22.4,21.3 32.2,1 41.6,21.4 63,24.9 47.4,40.6 "/>
<polygon class="st1" points="50.9,127 31.8,116.3 12.5,126.7 16.4,104.3 1,88.4 22.4,85.3 32.2,65 41.6,85.4 63,88.9 47.4,104.6 "/>
<polygon class="st2" points="50.9,191 31.8,180.3 12.5,190.7 16.4,168.3 1,152.4 22.4,149.3 32.2,129 41.6,149.4 63,152.9 
	47.4,168.6 "/>
<polygon class="st3" points="50.9,255 31.8,244.3 12.5,254.7 16.4,232.3 1,216.4 22.4,213.3 32.2,193 41.6,213.4 63,216.9 
	47.4,232.6 "/>
</svg>
